<svg xmlns="http://www.w3.org/2000/svg" viewBox="0 0 634 490" width="634" height="490">
  <path d="M 507 153 L 502 147 L 498 146 L 487 147 L 477 151 L 472 151 L 469 153 L 446 158 L 443 160 L 438 160 L 435 162 L 431 162 L 418 167 L 414 167 L 411 169 L 407 169 L 397 173 L 393 173 L 379 178 L 375 178 L 372 180 L 361 182 L 355 185 L 314 196 L 299 202 L 257 214 L 248 218 L 244 218 L 214 229 L 210 229 L 208 231 L 190 236 L 188 238 L 184 238 L 182 240 L 179 240 L 162 247 L 147 251 L 137 256 L 128 258 L 126 260 L 115 263 L 89 274 L 84 278 L 79 288 L 80 300 L 84 307 L 90 312 L 155 345 L 157 345 L 159 347 L 161 347 L 192 364 L 200 373 L 207 400 L 209 413 L 211 416 L 211 421 L 215 430 L 221 436 L 229 437 L 238 434 L 272 401 L 276 401 L 279 403 L 288 405 L 310 414 L 312 416 L 315 416 L 320 419 L 329 421 L 332 423 L 339 424 L 350 423 L 358 417 L 376 387 L 376 385 L 391 361 L 396 350 L 400 345 L 405 334 L 416 316 L 416 314 L 425 300 L 425 298 L 442 271 L 447 260 L 465 231 L 465 229 L 474 216 L 474 214 L 481 204 L 485 195 L 505 164 L 507 159 Z M 464 182 L 398 295 L 349 385 L 340 398 L 328 396 L 274 372 L 267 372 L 260 376 L 236 401 L 234 401 L 231 394 L 231 379 L 286 316 L 291 317 L 298 335 L 309 347 L 313 349 L 323 349 L 334 343 L 349 326 L 378 287 L 445 207 L 449 200 L 449 196 L 447 194 L 438 198 L 405 227 L 374 259 L 321 320 L 318 319 L 303 284 L 298 278 L 291 276 L 282 282 L 260 311 L 233 341 L 231 341 L 231 319 L 233 316 L 237 291 L 236 285 L 232 280 L 215 279 L 159 283 L 139 282 L 139 280 L 171 267 L 276 233 L 402 196 L 441 187 L 455 182 Z M 125 302 L 126 301 L 150 301 L 151 302 L 165 302 L 166 303 L 190 303 L 191 304 L 203 304 L 204 305 L 208 305 L 210 307 L 210 316 L 209 317 L 209 324 L 208 325 L 208 329 L 207 330 L 207 334 L 206 335 L 206 337 L 204 339 L 202 339 L 201 338 L 198 338 L 196 336 L 193 336 L 191 334 L 189 334 L 188 333 L 187 333 L 186 332 L 184 332 L 183 331 L 182 331 L 180 329 L 178 329 L 176 327 L 174 327 L 172 325 L 170 325 L 168 323 L 166 323 L 165 322 L 164 322 L 163 321 L 162 321 L 161 320 L 160 320 L 159 319 L 158 319 L 157 318 L 154 318 L 152 316 L 150 316 L 148 314 L 146 314 L 144 312 L 142 312 L 141 311 L 140 311 L 138 309 L 136 309 L 135 308 L 134 308 L 133 307 L 131 307 L 130 306 L 129 306 L 128 305 L 126 305 L 125 304 Z" fill="currentColor" fill-rule="evenodd"/>
</svg>
